<?xml version="1.0" encoding="UTF-8"?>
<svg width="490px" height="305px" viewBox="0 0 490 305" version="1.1" xmlns="http://www.w3.org/2000/svg" xmlns:xlink="http://www.w3.org/1999/xlink">
    <title>Group 34</title>
    <g id="Newest" stroke="none" stroke-width="1" fill="none" fill-rule="evenodd">
        <g id="Group-34">
            <g id="Group-14">
                <rect id="Rectangle" stroke="#000000" stroke-width="5" fill="#D8D8D8" x="2.5" y="2.5" width="485" height="300" rx="15"></rect>
                <g id="Group-9">
                    <path d="M475,2.5 C478.45178,2.5 481.57678,3.89911016 483.838835,6.16116524 C486.10089,8.42322031 487.5,11.5482203 487.5,15 L487.5,15 L487.5,57.5 L2.5,57.5 L2.5,15 C2.5,11.5482203 3.89911016,8.42322031 6.16116524,6.16116524 C8.42322031,3.89911016 11.5482203,2.5 15,2.5 L15,2.5 Z" id="Rectangle" stroke="#000000" stroke-width="5" fill="#EEEEEE"></path>
                    <circle id="Oval" stroke="#000000" stroke-width="5" fill="#FF0000" cx="32.5" cy="30" r="12.5"></circle>
                    <text id="credenza" font-family="Terminal-Grotesque, Terminal Grotesque" font-size="30" font-weight="normal" fill="#000000">
                        <tspan x="57.5" y="39">credenza</tspan>
                    </text>
                </g>
            </g>
            <g id="Group-19" transform="translate(285.000000, 235.000000)">
                <circle id="Oval" fill="#EEEEEE" cx="25" cy="25" r="25"></circle>
                <path d="M40,15.4031242 L40,34.5968758 C40,37.3582995 37.7614237,39.5968758 35,39.5968758 C33.8646425,39.5968758 32.76309,39.210472 31.8765248,38.5012198 L19.8804301,28.904344 C17.7241204,27.1792963 17.3745135,24.0328344 19.0995612,21.8765248 C19.3302201,21.5882012 19.5921065,21.3263148 19.8804301,21.095656 L31.8765248,11.4987802 C34.0328344,9.77373245 37.1792963,10.1233393 38.904344,12.279649 C39.6135962,13.1662142 40,14.2677668 40,15.4031242 Z" id="Path-4" fill="#AAAAAA" transform="translate(27.500000, 25.000000) scale(-1, 1) translate(-27.500000, -25.000000) "></path>
            </g>
            <g id="Group-18" transform="translate(155.000000, 235.000000)">
                <circle id="Oval" fill="#EEEEEE" cx="25" cy="25" r="25"></circle>
                <path d="M35,15.4031242 L35,34.5968758 C35,37.3582995 32.7614237,39.5968758 30,39.5968758 C28.8646425,39.5968758 27.76309,39.210472 26.8765248,38.5012198 L14.8804301,28.904344 C12.7241204,27.1792963 12.3745135,24.0328344 14.0995612,21.8765248 C14.3302201,21.5882012 14.5921065,21.3263148 14.8804301,21.095656 L26.8765248,11.4987802 C29.0328344,9.77373245 32.1792963,10.1233393 33.904344,12.279649 C34.6135962,13.1662142 35,14.2677668 35,15.4031242 Z" id="Path-4" fill="#AAAAAA"></path>
            </g>
            <g id="Group-23" transform="translate(215.000000, 230.000000)">
                <g id="Group-4" fill="#EEEEEE">
                    <circle id="Oval" cx="30" cy="30" r="30"></circle>
                </g>
                <g id="Group-22" transform="translate(16.000000, 12.000000)" fill="#AAAAAA">
                    <rect id="Rectangle" x="0" y="0" width="12" height="36" rx="4"></rect>
                    <rect id="Rectangle" x="16" y="0" width="12" height="36" rx="4"></rect>
                </g>
            </g>
            <g id="Group-26" transform="translate(165.000000, 60.000000)" fill="#CC4A00">
                <rect id="Rectangle" x="0" y="0" width="160" height="115"></rect>
            </g>
            <rect id="Rectangle" stroke="#AAAAAA" stroke-width="5" fill="#D8D8D8" x="17.5" y="72.5" width="135" height="100"></rect>
            <text id="pulling-back-the-cur" font-family="Terminal-Grotesque, Terminal Grotesque" font-size="24" font-weight="normal" fill="#000000">
                <tspan x="26.9960938" y="105">pulling back </tspan>
                <tspan x="26.140625" y="130">the curtains</tspan>
                <tspan x="28.5664062" y="155">by J.H. Gold</tspan>
            </text>
            <rect id="Rectangle" stroke="#AAAAAA" stroke-width="5" fill="#D8D8D8" x="337.5" y="72.5" width="135" height="100"></rect>
            <text id="more-blockchain-musi" font-family="Terminal-Grotesque, Terminal Grotesque" font-size="24" font-weight="normal" fill="#000000">
                <tspan x="380.648438" y="105">more</tspan>
                <tspan x="354.386719" y="130">blockchain</tspan>
                <tspan x="378.515625" y="155">music</tspan>
            </text>
            <rect id="Rectangle" fill="#CC4A00" transform="translate(245.000000, 205.000000) rotate(90.000000) translate(-245.000000, -205.000000) " x="225" y="-25" width="40" height="460"></rect>
            <rect id="Rectangle" fill="#610F00" transform="translate(65.000000, 205.000000) rotate(90.000000) translate(-65.000000, -205.000000) " x="45" y="155" width="40" height="100"></rect>
            <g id="credenza_frame_0" transform="translate(165.000000, 60.000000)">
                <rect id="Rectangle" fill="#CC4A00" x="0" y="0" width="160" height="115"></rect>
                <g id="iconfinder_17_726560" transform="translate(18.000000, 0.000000)" fill="#610F00" fill-rule="nonzero">
                    <path d="M113.875,14.6428571 L113.622891,8.45548453 L98.0688272,14.6428571 L35.125,14.6428571 L35.125,3.92857143 C35.125,1.75705357 33.1682813,0 30.75,0 C28.3317188,0 26.375,1.75705357 26.375,3.92857143 L26.375,10.7142857 L26.375,14.6428571 L26.375,30.3571429 L26.375,34.2857143 L26.375,40.1211161 C23.7942969,38.9393527 20.8294141,38.2142857 17.625,38.2142857 C8.81511719,38.2142857 1.59910156,43.3474554 0.377109375,50 L0.377109375,53.9285714 C1.59910156,60.5811161 8.81511719,65.7142857 17.625,65.7142857 C26.4348828,65.7142857 33.6508984,60.5811161 34.8728906,53.9285714 L35.125,50 L57,50 L57,53.9285714 L57,69.6428571 L57,73.5714286 L57,79.4068304 C54.4192969,78.225067 51.4544141,77.5 48.25,77.5 C39.4401172,77.5 32.2241016,82.6331696 31.0021094,89.2857143 L31.0021094,93.2142857 C32.2241016,99.8668304 39.4401172,105 48.25,105 C57.0598828,105 64.2758984,99.8668304 65.4978906,93.2142857 L65.75,89.2857143 L65.75,69.6428571 L79.1271094,69.6428571 L79.1271094,73.5714286 C80.3491016,80.2239732 87.5651172,85.3571429 96.375,85.3571429 C105.184883,85.3571429 112.400898,80.2239732 113.622891,73.5714286 L113.875,69.6428571 L113.875,53.9285714 L113.875,50 L113.875,34.2857143 L113.875,30.3571429 L113.875,24.2840625 L113.875,14.6428571 Z M59.2202065,30.3226737 C59.1981812,30.4861274 57.9854654,31.3523476 57.4625816,32.5548489 C56.9792887,33.6663012 57,35.0631618 57,35.2180134 L57,42.1428571 L57,50 L35.125,50 L35.130144,30.3348395 L59.2202065,30.3226737 Z M105.125,59.7639732 C102.540195,58.5822098 99.5794141,57.8571429 96.375,57.8571429 C87.5651172,57.8571429 80.3491016,62.9903125 79.1271094,69.6428571 L65.75,69.6428571 L65.75,53.9285714 L105.125,53.9285714 L105.125,59.7639732 Z M105.125,50 L105.093185,53.9421844 L65.7502289,53.9438629 C65.7111086,52.920553 65.7297232,52.1823269 65.8060727,51.7291848 C65.8824222,51.2760427 66.107273,50.6996478 66.480625,50 L104.394375,35 L105.125,35 L105.125,50 Z M35.125,14.6428571 L98.02,14.6428571 L61.9773828,28.4503125 C60.8538281,28.88 59.9394531,29.570692 59.1533203,30.3571429 L35.125,30.3571429 L35.125,14.6428571 Z" id="Shape"></path>
                </g>
                <rect id="Rectangle" fill="#610F00" x="10" y="35" width="140" height="5"></rect>
                <rect id="Rectangle" fill="#610F00" x="10" y="15" width="140" height="5"></rect>
                <rect id="Rectangle" fill="#610F00" x="10" y="55" width="140" height="5"></rect>
                <rect id="Rectangle" fill="#610F00" x="10" y="75" width="140" height="5"></rect>
                <rect id="Rectangle" fill="#610F00" x="10" y="95" width="140" height="5"></rect>
            </g>
        </g>
    </g>
</svg>