<?xml version="1.0" encoding="UTF-8"?>
<svg width="98px" height="61px" viewBox="0 0 98 61" version="1.1" xmlns="http://www.w3.org/2000/svg" xmlns:xlink="http://www.w3.org/1999/xlink">
    <!-- Generator: Sketch 56.3 (81716) - https://sketch.com -->
    <title>musicplayer</title>
    <desc>Created with Sketch.</desc>
    <g id="Page-1" stroke="none" stroke-width="1" fill="none" fill-rule="evenodd">
        <g id="Artboard" transform="translate(-135.000000, -388.000000)">
            <g id="musicplayer" transform="translate(135.000000, 387.500000)">
                <g id="Group-20" transform="translate(0.000000, 0.500000)">
                    <g id="Group-16">
                        <g id="Group-14">
                            <rect id="Rectangle" stroke="#000000" fill="#D8D8D8" x="0.5" y="0.5" width="97" height="60" rx="3"></rect>
                            <g id="Group-9">
                                <path d="M0.5,11.5 L97.5,11.5 L97.5,3 C97.5,1.61928813 96.3807119,0.5 95,0.5 L3,0.5 C1.61928813,0.5 0.5,1.61928813 0.5,3 L0.5,11.5 Z" id="Rectangle" stroke="#000000" fill="#EEEEEE"></path>
                                <circle id="Oval" stroke="#000000" fill="#FF0000" cx="6.5" cy="6" r="2.5"></circle>
                                <text id="credenza" font-family="Terminal-Grotesque, Terminal Grotesque" font-size="6" font-weight="normal" fill="#000000">
                                    <tspan x="11.5" y="8">credenza</tspan>
                                </text>
                            </g>
                        </g>
                    </g>
                </g>
                <g id="Group-19" transform="translate(57.000000, 47.500000)">
                    <circle id="Oval" fill="#EEEEEE" cx="5" cy="5" r="5"></circle>
                    <path d="M8,3.08062485 L8,6.91937515 C8,7.4716599 7.55228475,7.91937515 7,7.91937515 C6.7729285,7.91937515 6.552618,7.8420944 6.37530495,7.70024396 L3.97608601,5.78086881 C3.54482408,5.43585926 3.4749027,4.80656689 3.81991225,4.37530495 C3.86604401,4.31764025 3.91842131,4.26526295 3.97608601,4.21913119 L6.37530495,2.29975604 C6.80656689,1.95474649 7.43585926,2.02466786 7.78086881,2.4559298 C7.92271925,2.63324285 8,2.85355335 8,3.08062485 Z" id="Path-4" fill="#AAAAAA" transform="translate(5.500000, 5.000000) scale(-1, 1) translate(-5.500000, -5.000000) "></path>
                </g>
                <g id="Group-18" transform="translate(31.000000, 47.500000)">
                    <circle id="Oval" fill="#EEEEEE" cx="5" cy="5" r="5"></circle>
                    <path d="M7,3.08062485 L7,6.91937515 C7,7.4716599 6.55228475,7.91937515 6,7.91937515 C5.7729285,7.91937515 5.552618,7.8420944 5.37530495,7.70024396 L2.97608601,5.78086881 C2.54482408,5.43585926 2.4749027,4.80656689 2.81991225,4.37530495 C2.86604401,4.31764025 2.91842131,4.26526295 2.97608601,4.21913119 L5.37530495,2.29975604 C5.80656689,1.95474649 6.43585926,2.02466786 6.78086881,2.4559298 C6.92271925,2.63324285 7,2.85355335 7,3.08062485 Z" id="Path-4" fill="#AAAAAA"></path>
                </g>
                <g id="Group-23" transform="translate(43.000000, 46.500000)">
                    <g id="Group-4" fill="#EEEEEE">
                        <circle id="Oval" cx="6" cy="6" r="6"></circle>
                    </g>
                    <g id="Group-22" transform="translate(3.200000, 2.400000)" fill="#AAAAAA">
                        <rect id="Rectangle" x="0" y="0" width="2.4" height="7.2" rx="0.8"></rect>
                        <rect id="Rectangle" x="3.2" y="0" width="2.4" height="7.2" rx="0.8"></rect>
                    </g>
                </g>
                <rect id="Rectangle" fill="#CC4A00" x="33" y="12.5" width="32" height="23"></rect>
                <g id="iconfinder_17_726560" transform="translate(35.000000, 12.500000)" fill="#610F00" fill-rule="nonzero">
                    <path d="M25.375,3.92857143 L28,3.92857143 L28,3.14285714 L9.625,3.14285714 L9.625,0.785714286 C9.625,0.351410714 9.23365625,0 8.75,0 C8.26634375,0 7.875,0.351410714 7.875,0.785714286 L7.875,3.14285714 L0,3.14285714 L0,3.92857143 L7.875,3.92857143 L7.875,7.07142857 L0,7.07142857 L0,7.85714286 L7.875,7.85714286 L7.875,9.02422321 C7.35885937,8.78787054 6.76588281,8.64285714 6.125,8.64285714 C4.36302344,8.64285714 2.91982031,9.66949107 2.67542187,11 L0,11 L0,11.7857143 L2.67542187,11.7857143 C2.91982031,13.1162232 4.36302344,14.1428571 6.125,14.1428571 C7.88697656,14.1428571 9.33017969,13.1162232 9.57457812,11.7857143 L14,11.7857143 L14,14.9285714 L0,14.9285714 L0,15.7142857 L14,15.7142857 L14,16.8813661 C13.4838594,16.6450134 12.8908828,16.5 12.25,16.5 C10.4880234,16.5 9.04482031,17.5266339 8.80042187,18.8571429 L0,18.8571429 L0,19.6428571 L8.80042187,19.6428571 C9.04482031,20.9733661 10.4880234,22 12.25,22 C14.0119766,22 15.4551797,20.9733661 15.6995781,19.6428571 L28,19.6428571 L28,18.8571429 L15.75,18.8571429 L15.75,15.7142857 L18.4254219,15.7142857 C18.6698203,17.0447946 20.1130234,18.0714286 21.875,18.0714286 C23.6369766,18.0714286 25.0801797,17.0447946 25.3245781,15.7142857 L28,15.7142857 L28,14.9285714 L25.375,14.9285714 L25.375,11.7857143 L28,11.7857143 L28,11 L25.375,11 L25.375,7.85714286 L28,7.85714286 L28,7.07142857 L25.375,7.07142857 L25.375,5.8568125 L25.375,3.92857143 Z M14.0307891,7.85714286 C14.0223125,7.92004911 14,7.979125 14,8.04360268 L14,9.42857143 L14,11 L9.625,11 L9.625,7.85714286 L14.0307891,7.85714286 Z M23.625,12.9527946 C23.1080391,12.716442 22.5158828,12.5714286 21.875,12.5714286 C20.1130234,12.5714286 18.6698203,13.5980625 18.4254219,14.9285714 L15.75,14.9285714 L15.75,11.7857143 L23.625,11.7857143 L23.625,12.9527946 Z M23.625,11 L15.896125,11 L23.478875,7.85714286 L23.625,7.85714286 L23.625,11 Z M9.625,7.07142857 L9.625,3.92857143 L22.204,3.92857143 L14.9954766,6.6900625 C14.7707656,6.776 14.5878906,6.91413839 14.4306641,7.07142857 L9.625,7.07142857 L9.625,7.07142857 Z" id="Shape"></path>
                </g>
                <rect id="Rectangle" stroke="#AAAAAA" fill="#D8D8D8" x="3.5" y="15" width="27" height="20"></rect>
                <text id="position-0.21-sec" font-family="Terminal-Grotesque, Terminal Grotesque" font-size="6" font-weight="normal" fill="#000000">
                    <tspan x="7.84472656" y="23.5">position</tspan>
                    <tspan x="7.67480469" y="29.5">0.21 sec</tspan>
                </text>
                <rect id="Rectangle" stroke="#AAAAAA" fill="#D8D8D8" x="67.5" y="15" width="27" height="20"></rect>
                <text id="length-3.40-sec" font-family="Terminal-Grotesque, Terminal Grotesque" font-size="6" font-weight="normal" fill="#000000">
                    <tspan x="73.4853516" y="23.5">length</tspan>
                    <tspan x="71.0039062" y="29.5">3.40 sec</tspan>
                </text>
                <rect id="Rectangle" fill="#CC4A00" transform="translate(49.000000, 41.500000) rotate(90.000000) translate(-49.000000, -41.500000) " x="45" y="-4.5" width="8" height="92"></rect>
                <rect id="Rectangle" fill="#610F00" transform="translate(13.000000, 41.500000) rotate(90.000000) translate(-13.000000, -41.500000) " x="9" y="31.5" width="8" height="20"></rect>
            </g>
        </g>
    </g>
</svg>